<?xml version="1.0" encoding="UTF-8" standalone="no"?>
<!-- Created with Inkscape (http://www.inkscape.org/) -->

<svg
   xmlns:dc="http://purl.org/dc/elements/1.1/"
   xmlns:cc="http://creativecommons.org/ns#"
   xmlns:rdf="http://www.w3.org/1999/02/22-rdf-syntax-ns#"
   xmlns:svg="http://www.w3.org/2000/svg"
   xmlns="http://www.w3.org/2000/svg"
   xmlns:sodipodi="http://sodipodi.sourceforge.net/DTD/sodipodi-0.dtd"
   xmlns:inkscape="http://www.inkscape.org/namespaces/inkscape"
   sodipodi:docname="dataencap.svg"
   inkscape:version="0.92.4 5da689c313, 2019-01-14"
   sodipodi:version="0.32"
   id="svg2"
   height="0.56060767in"
   width="4.4404016in"
   version="1.1">
  <defs
     id="defs3" />
  <sodipodi:namedview
     inkscape:window-y="42"
     inkscape:window-x="302"
     inkscape:window-height="1458"
     inkscape:window-width="2491"
     inkscape:grid-bbox="false"
     gridtolerance="1.0000000mm"
     showgrid="false"
     inkscape:current-layer="text2103"
     inkscape:document-units="px"
     inkscape:cy="54.656582"
     inkscape:cx="391.48311"
     inkscape:zoom="1.979899"
     inkscape:pageshadow="2"
     inkscape:pageopacity="0.0"
     borderopacity="1.0"
     bordercolor="#666666"
     pagecolor="#ffffff"
     id="base"
     fit-margin-top="0"
     fit-margin-left="0"
     fit-margin-right="0"
     fit-margin-bottom="0"
     inkscape:window-maximized="0">
    <inkscape:grid
       id="GridFromPre046Settings"
       type="xygrid"
       originx="-162.20515"
       originy="-879.05805"
       spacingx="1.0666667"
       spacingy="1.0666667"
       color="#3f3fff"
       empcolor="#3f3fff"
       opacity="0.15"
       empopacity="0.38"
       empspacing="5" />
  </sodipodi:namedview>
  <metadata
     id="metadata4">
    <rdf:RDF>
      <cc:Work
         rdf:about="">
        <dc:format>image/svg+xml</dc:format>
        <dc:type
           rdf:resource="http://purl.org/dc/dcmitype/StillImage" />
        <dc:title></dc:title>
      </cc:Work>
    </rdf:RDF>
  </metadata>
  <g
     id="layer1"
     inkscape:groupmode="layer"
     inkscape:label="Layer 1"
     transform="translate(-162.20515,-123.12362)">
    <rect
       y="150.03241"
       x="414.08069"
       height="0.00073690858"
       width="0.0028696468"
       id="rect2089"
       style="fill:none;fill-opacity:1;stroke:#000000;stroke-linecap:butt;stroke-linejoin:round;stroke-miterlimit:4;stroke-dashoffset:0;stroke-opacity:1" />
    <g
       aria-label="データ"
       style="font-style:italic;font-weight:bold;font-family:'Liberation Mono',monospace;fill:#000000"
       id="text2083">
      <text
         x="515"
         y="158"
         style="font-size:26px;font-style:italic;font-weight:bold;font-family:'Liberation Mono',monospace;fill:#000000"
         id="path891">データ</text>
    </g>
    <g
       aria-label="TFTP"
       style="font-style:normal;font-variant:normal;font-weight:normal;font-stretch:normal;line-height:0%;font-family:'Courier 10 Pitch';writing-mode:lr-tb;text-anchor:start;fill:#000000;fill-opacity:1;stroke:none;stroke-width:1px;stroke-linecap:butt;stroke-linejoin:miter;stroke-opacity:1"
       id="text2093">
      <path
         d="m 434.69821,142.48801 v 17.35954 h -2.76472 v -17.35954 h -6.44616 v -2.26998 h 15.65705 v 2.26998 z"
         style="font-style:normal;font-variant:normal;font-weight:normal;font-stretch:normal;font-size:29.80078506px;line-height:1.25;font-family:'Liberation Mono';-inkscape-font-specification:'Liberation Mono'"
         id="path882"
         inkscape:connector-curvature="0" />
      <path
         d="m 447.86702,142.48801 v 7.18828 h 9.83659 v 2.29908 h -9.83659 v 7.87218 h -2.77927 v -19.62952 h 12.96508 v 2.26998 z"
         style="font-style:normal;font-variant:normal;font-weight:normal;font-stretch:normal;font-size:29.80078506px;line-height:1.25;font-family:'Liberation Mono';-inkscape-font-specification:'Liberation Mono'"
         id="path884"
         inkscape:connector-curvature="0" />
      <path
         d="m 470.46498,142.48801 v 17.35954 h -2.76472 v -17.35954 h -6.44617 v -2.26998 h 15.65705 v 2.26998 z"
         style="font-style:normal;font-variant:normal;font-weight:normal;font-stretch:normal;font-size:29.80078506px;line-height:1.25;font-family:'Liberation Mono';-inkscape-font-specification:'Liberation Mono'"
         id="path886"
         inkscape:connector-curvature="0" />
      <path
         d="m 494.31434,146.0967 q 0,1.81889 -0.87307,3.24491 -0.85852,1.42601 -2.4737,2.22633 -1.60063,0.80031 -3.71055,0.80031 h -4.08888 v 7.4793 h -2.77927 v -19.62952 h 6.69354 q 3.46317,0 5.34027,1.55697 1.89166,1.54243 1.89166,4.3217 z m -2.79383,0.0437 q 0,-3.69599 -4.77278,-3.69599 h -3.57959 v 7.72666 h 3.696 q 2.16812,0 3.40497,-1.06223 1.2514,-1.06224 1.2514,-2.96844 z"
         style="font-style:normal;font-variant:normal;font-weight:normal;font-stretch:normal;font-size:29.80078506px;line-height:1.25;font-family:'Liberation Mono';-inkscape-font-specification:'Liberation Mono'"
         id="path888"
         inkscape:connector-curvature="0" />
    </g>
    <g
       aria-label="UDP"
       style="font-style:normal;font-variant:normal;font-weight:normal;font-stretch:normal;line-height:0%;font-family:'Courier 10 Pitch';writing-mode:lr-tb;text-anchor:start;fill:#000000;fill-opacity:1;stroke:none;stroke-width:1px;stroke-linecap:butt;stroke-linejoin:miter;stroke-opacity:1"
       id="text2099">
      <path
         d="m 379.86791,152.57196 q 0,3.88516 -1.65883,5.6604 -1.65884,1.76069 -5.32573,1.76069 -3.55048,0 -5.15111,-1.70249 -1.58608,-1.71703 -1.58608,-5.45668 v -12.76137 h 2.77927 v 12.38304 q 0,2.96843 0.84397,4.13253 0.85852,1.14954 3.0994,1.14954 2.34274,0 3.28856,-1.1932 0.94583,-1.19319 0.94583,-4.27804 v -12.19387 h 2.76472 z"
         style="font-style:normal;font-variant:normal;font-weight:normal;font-stretch:normal;font-size:29.80078506px;line-height:1.25;font-family:'Liberation Mono';-inkscape-font-specification:'Liberation Mono'"
         id="path875"
         inkscape:connector-curvature="0" />
      <path
         d="m 398.33334,149.69083 q 0,4.81643 -2.24088,7.42109 -2.22633,2.59011 -6.38796,2.59011 h -5.38394 v -19.62952 h 4.52542 q 4.78733,0 7.13007,2.40094 2.35729,2.38639 2.35729,7.21738 z m -2.79383,0 q 0,-3.84151 -1.60063,-5.58765 -1.60062,-1.76069 -5.07835,-1.76069 h -1.76069 v 15.08955 h 2.35729 q 3.08484,0 4.58361,-1.9353 1.49877,-1.93531 1.49877,-5.80591 z"
         style="font-style:normal;font-variant:normal;font-weight:normal;font-stretch:normal;font-size:29.80078506px;line-height:1.25;font-family:'Liberation Mono';-inkscape-font-specification:'Liberation Mono'"
         id="path877"
         inkscape:connector-curvature="0" />
      <path
         d="m 416.12941,145.95118 q 0,1.81889 -0.87307,3.24491 -0.85852,1.42601 -2.4737,2.22632 -1.60063,0.80032 -3.71054,0.80032 h -4.08888 v 7.4793 h -2.77927 v -19.62952 h 6.69353 q 3.46318,0 5.34028,1.55697 1.89165,1.54242 1.89165,4.3217 z m -2.79382,0.0437 q 0,-3.696 -4.77279,-3.696 h -3.57958 v 7.72667 h 3.69599 q 2.16813,0 3.40498,-1.06223 1.2514,-1.06224 1.2514,-2.96844 z"
         style="font-style:normal;font-variant:normal;font-weight:normal;font-stretch:normal;font-size:29.80078506px;line-height:1.25;font-family:'Liberation Mono';-inkscape-font-specification:'Liberation Mono'"
         id="path879"
         inkscape:connector-curvature="0" />
    </g>
    <g
       aria-label="IP"
       style="font-style:normal;font-variant:normal;font-weight:normal;font-stretch:normal;line-height:0%;font-family:'Courier 10 Pitch';writing-mode:lr-tb;text-anchor:start;fill:#000000;fill-opacity:1;stroke:none;stroke-width:1px;stroke-linecap:butt;stroke-linejoin:miter;stroke-opacity:1"
       id="text2103">
      <path
         d="m 324.58417,140.21803 h 11.97561 v 2.26998 h -4.59817 v 15.08956 h 4.59817 v 2.26998 h -11.97561 v -2.26998 h 4.59817 v -15.08956 h -4.59817 z"
         style="font-style:normal;font-variant:normal;font-weight:normal;font-stretch:normal;font-size:29.80078506px;line-height:1.25;font-family:'Liberation Mono';-inkscape-font-specification:'Liberation Mono'"
         id="path870"
         inkscape:connector-curvature="0" />
      <path
         d="m 355.81097,146.0967 q 0,1.81889 -0.87307,3.24491 -0.85852,1.42601 -2.4737,2.22633 -1.60063,0.80031 -3.71054,0.80031 h -4.08888 v 7.4793 h -2.77927 v -19.62952 h 6.69353 q 3.46318,0 5.34028,1.55697 1.89165,1.54243 1.89165,4.3217 z m -2.79382,0.0437 q 0,-3.69599 -4.77279,-3.69599 h -3.57958 v 7.72666 h 3.69599 q 2.16813,0 3.40498,-1.06223 1.2514,-1.06224 1.2514,-2.96844 z"
         style="font-style:normal;font-variant:normal;font-weight:normal;font-stretch:normal;font-size:29.80078506px;line-height:1.25;font-family:'Liberation Mono';-inkscape-font-specification:'Liberation Mono'"
         id="path872"
         inkscape:connector-curvature="0" />
    </g>
    <g
       aria-label="イーサネット"
       style="font-family:'Liberation Mono',monospace;fill:#000000"
       id="text2107">
      <text
         x="172"
         y="158"
         style="font-size:24px;font-family:'Liberation Mono',monospace;fill:#000000"
         id="path853">イーサネット</text>
    </g>
    <path
       id="rect2081"
       d="m 318.79106,126.40323 h 266.55371 v 47.25912 H 318.79106 Z"
       style="fill:none;fill-opacity:1;stroke:#000000;stroke-width:0.68892628;stroke-linecap:butt;stroke-linejoin:round;stroke-miterlimit:4;stroke-dashoffset:0;stroke-opacity:1"
       inkscape:connector-curvature="0" />
    <path
       id="path2137"
       d="m 499.66782,135.21409 h 76.95476 v 29.63739 h -76.95476 z"
       style="fill:none;fill-opacity:1;stroke:#000000;stroke-width:1.6119343;stroke-linecap:butt;stroke-linejoin:round;stroke-miterlimit:4;stroke-dashoffset:0;stroke-opacity:1"
       inkscape:connector-curvature="0" />
    <path
       id="path2135"
       d="m 361.03374,129.22428 h 221.79763 v 41.617 H 361.03374 Z"
       style="fill:none;fill-opacity:1;stroke:#000000;stroke-width:0.68892628;stroke-linecap:butt;stroke-linejoin:round;stroke-miterlimit:4;stroke-dashoffset:0;stroke-opacity:1"
       inkscape:connector-curvature="0" />
    <path
       id="path2133"
       d="m 421.00019,132.13431 h 158.75212 v 35.79695 H 421.00019 Z"
       style="fill:none;fill-opacity:1;stroke:#000000;stroke-width:0.68892628;stroke-linecap:butt;stroke-linejoin:round;stroke-miterlimit:4;stroke-dashoffset:0;stroke-opacity:1"
       inkscape:connector-curvature="0" />
    <path
       id="path2131"
       d="m 162.54961,123.46808 h 425.58963 v 53.12941 H 162.54961 Z"
       style="fill:none;fill-opacity:1;stroke:#000000;stroke-width:0.68892628;stroke-linecap:butt;stroke-linejoin:round;stroke-miterlimit:4;stroke-dashoffset:0;stroke-opacity:1"
       inkscape:connector-curvature="0" />
  </g>
</svg>
